<?xml version="1.0" standalone="no"?>
<!DOCTYPE svg PUBLIC "-//W3C//DTD SVG 20010904//EN"
 "http://www.w3.org/TR/2001/REC-SVG-20010904/DTD/svg10.dtd">
<svg version="1.0" xmlns="http://www.w3.org/2000/svg"
 width="512.000000pt" height="512.000000pt" viewBox="0 0 512.000000 512.000000"
 preserveAspectRatio="xMidYMid meet">
<metadata>
Created by potrace 1.14, written by Peter Selinger 2001-2017
</metadata>
<g transform="translate(0.000000,512.000000) scale(0.100000,-0.100000)"
fill="#000000" stroke="none">
<path d="M2460 5084 c-52 -19 -111 -42 -130 -49 -19 -8 -213 -80 -430 -160
-441 -163 -590 -218 -1360 -504 l-535 -198 0 -1612 0 -1613 215 -79 c118 -44
224 -83 235 -88 11 -5 115 -43 230 -86 116 -42 221 -81 235 -87 14 -5 81 -30
150 -55 69 -24 134 -48 145 -53 11 -5 58 -23 105 -40 47 -17 94 -35 105 -39
32 -14 274 -101 280 -101 3 0 5 94 5 210 l0 209 -32 15 c-18 8 -145 56 -283
106 -137 50 -340 125 -450 166 -110 41 -276 102 -370 137 l-170 63 -3 1257
c-1 873 1 1257 8 1257 6 0 102 -34 213 -75 111 -42 546 -203 967 -359 l765
-283 3 -402 2 -401 200 0 200 0 2 401 3 402 40 14 c22 7 49 17 60 22 11 5 85
33 165 62 80 29 156 57 170 62 14 6 30 11 35 13 6 1 57 21 115 42 58 22 168
63 245 91 77 29 156 58 175 66 19 8 78 30 130 49 52 19 254 93 448 165 195 72
358 131 363 131 5 0 9 -319 9 -784 l0 -784 53 -18 c78 -25 183 -80 270 -140
l77 -54 0 1110 c0 852 -3 1110 -12 1110 -11 0 -236 80 -283 101 -11 5 -119 45
-240 89 -121 45 -229 85 -240 90 -11 4 -69 26 -130 48 -128 47 -208 76 -560
206 -143 53 -267 99 -275 103 -8 3 -17 7 -20 7 -3 1 -18 6 -35 13 -169 64
-730 271 -750 276 -11 3 -62 -10 -115 -29z m343 -479 c128 -47 248 -92 267
-100 19 -8 78 -30 130 -49 52 -19 280 -103 505 -186 536 -199 564 -210 604
-224 l35 -13 -30 -10 c-16 -6 -65 -24 -109 -41 -44 -16 -129 -48 -190 -70 -60
-22 -121 -45 -135 -50 -23 -10 -100 -39 -600 -222 -107 -40 -307 -114 -445
-165 -267 -100 -272 -101 -295 -92 -8 3 -64 23 -125 45 -60 22 -207 76 -325
120 -118 44 -406 150 -640 236 -234 86 -441 163 -460 171 -19 8 -75 28 -123
46 l-88 33 213 78 c117 44 350 130 518 192 457 171 754 280 760 282 3 0 12 4
20 7 55 23 257 96 268 96 7 1 117 -37 245 -84z"/>
<path d="M2120 1620 l0 -200 288 0 287 -1 -132 -128 -133 -128 0 -114 0 -114
48 -19 c77 -31 315 -151 378 -191 86 -55 172 -123 184 -145 12 -23 -9 -82 -43
-118 -19 -21 -97 -68 -104 -63 -2 0 -176 1 -388 1 l-385 0 0 -200 0 -200 405
0 c368 1 412 3 481 20 216 55 385 232 430 450 44 209 -33 355 -280 535 -50 36
-93 65 -97 65 -5 0 -25 12 -46 26 -35 24 -43 41 -23 54 4 3 94 88 199 190
l191 184 0 148 0 148 -630 0 -630 0 0 -200z"/>
<path d="M3780 910 l0 -912 378 4 377 4 80 27 c242 81 421 272 484 517 17 67
19 109 18 380 l-2 305 -31 88 c-44 123 -87 190 -179 282 -91 91 -175 144 -290
182 l-80 27 -377 4 -378 4 0 -912z m752 481 c61 -28 127 -93 158 -156 25 -49
25 -53 25 -325 0 -272 0 -276 -24 -323 -28 -54 -71 -104 -116 -134 -59 -39
-116 -51 -259 -52 l-136 -2 0 512 0 511 153 -4 c130 -4 159 -8 199 -27z"/>
</g>
</svg>
